<svg id="Capa_1" enable-background="new 0 0 512 512" height="512" viewBox="0 0 512 512" width="512" xmlns="http://www.w3.org/2000/svg"><g><g><g><g><g><g><g><g><path d="m62.492 423.608c-38.933-44.909-62.492-103.507-62.492-167.608 0-141.385 114.615-256 256-256s256 114.615 256 256c0 64.101-23.559 122.699-62.491 167.608z" fill="#4a7aff"/></g></g></g></g></g></g></g><path d="m511.944 261.415-153.684-153.721-6.577 15.955-46.649-46.649-154.654 168.658 178.041 177.95h121.087c37.834-43.641 61.15-100.21 62.436-162.193z" fill="#0053bf"/><g><g><path d="m273.918 511.383c70.03-4.842 132.309-37.849 175.59-87.775l-7.053-10.196c-14.466-20.915-35.379-36.523-59.547-44.439l-64.26-21.051c-1.311-.43-2.581-.936-3.806-1.512l-58.842 58.842-58.843-58.843c-1.225.577-2.495 1.083-3.806 1.512l-64.26 21.051c-24.167 7.917-45.08 23.524-59.547 44.439l-7.053 10.196c43.281 49.925 105.56 82.933 175.59 87.775h35.837z" fill="#636978"/></g></g><g><g><path d="m442.456 413.412c-14.466-20.916-35.379-36.523-59.546-44.439l-64.26-21.051c-1.311-.43-2.581-.936-3.806-1.512l-58.844 58.842-.356-.356v106.487h18.274c70.031-4.842 132.31-37.849 175.59-87.775z" fill="#414952"/></g></g><g><path d="m238.081 511.383c5.92.409 11.895.617 17.919.617s11.999-.208 17.918-.617v-101.123h-35.837z" fill="#414952"/></g><g><path d="m255.644 410.26v101.737c.119 0 .237.003.356.003 6.024 0 11.999-.208 17.918-.617v-101.123z" fill="#23272b"/></g><g><g><path d="m256 326.517c-51.82 0-93.828-42.008-93.828-93.828v-57.966c0-51.82 42.008-93.828 93.828-93.828 51.82 0 93.828 42.008 93.828 93.828v57.966c0 51.82-42.008 93.828-93.828 93.828z" fill="#ffcdbe"/></g></g><g><g><path d="m256 80.896c-.119 0-.237.004-.356.004v245.612c.119 0 .237.005.356.005 51.82 0 93.828-42.008 93.828-93.828v-57.966c0-51.819-42.008-93.827-93.828-93.827z" fill="#ffbeaa"/></g></g><g><path d="m256 440.956c-56 0-101.397-45.397-101.397-101.397v-118.63l29.855 18.126c12.808 7.776 28.879 7.776 41.687 0l9.011-5.471c12.808-7.776 28.879-7.776 41.687 0l9.011 5.471c12.808 7.776 28.879 7.776 41.687 0l29.855-18.126v118.63c.001 56-45.396 101.397-101.396 101.397z" fill="#fff"/></g><g><path d="m327.542 239.055c-12.808 7.776-28.879 7.776-41.687 0l-9.011-5.471c-6.509-3.952-13.861-5.885-21.2-5.82v213.188c.119 0 .237.005.356.005 56 0 101.397-45.397 101.397-101.397v-118.63z" fill="#e9edf5"/></g><g><path d="m263.379 291.623h-14.759c-12.388 0-22.43-10.042-22.43-22.43h59.62c0 12.387-10.043 22.43-22.431 22.43z" fill="#ffcdbe"/></g><g><path d="m255.644 269.192v22.43h7.735c12.388 0 22.43-10.042 22.43-22.43z" fill="#ffbeaa"/></g><g><ellipse cx="229.586" cy="113.79" fill="#fff" rx="85.257" ry="49.846" transform="matrix(.948 -.319 .319 .948 -24.302 79.167)"/></g><g><path d="m310.39 86.598c-5.926-17.609-27.58-27.407-54.746-27.311v97.887c38.768-16.338 62.84-46.525 54.746-70.576z" fill="#e9edf5"/></g><g><ellipse cx="324.079" cy="131.47" fill="#e9edf5" rx="41.137" ry="47.804" transform="matrix(.612 -.791 .791 .612 21.856 307.462)"/></g><g><path d="m320.257 129.63h37.14v134.611h-37.14z" fill="#e9edf5"/></g><g><path d="m154.603 129.63h37.14v120.55h-37.14z" fill="#fff"/></g><g><g><g><path d="m167.059 250.181c-18.212 0-32.975-14.763-32.975-32.975s14.763-32.975 32.975-32.975z" fill="#ffbeaa"/></g></g><g><g><path d="m344.941 184.231c18.211 0 32.975 14.763 32.975 32.975s-14.763 32.975-32.975 32.975z" fill="#faa68e"/></g></g></g></g></svg>