<?xml version="1.0" standalone="no"?>
<!DOCTYPE svg PUBLIC "-//W3C//DTD SVG 20010904//EN"
 "http://www.w3.org/TR/2001/REC-SVG-20010904/DTD/svg10.dtd">
<svg version="1.0" xmlns="http://www.w3.org/2000/svg"
 width="317.000000pt" height="235.000000pt" viewBox="0 0 317.000000 235.000000"
 preserveAspectRatio="xMidYMid meet">

<g transform="translate(0.000000,235.000000) scale(0.100000,-0.100000)"
fill="#000000" stroke="none">
<path d="M0 1175 l0 -1175 1585 0 1585 0 0 1175 0 1175 -1585 0 -1585 0 0
-1175z m2484 1000 c92 -24 183 -100 230 -192 33 -65 32 -54 91 -1037 13 -202
13 -270 4 -315 -28 -137 -146 -289 -274 -352 l-70 -34 -870 3 c-837 3 -872 4
-929 23 -107 37 -178 99 -223 197 -29 61 -30 78 -64 785 -25 510 -24 532 32
647 57 115 223 262 318 281 20 4 410 7 866 8 715 1 839 -1 889 -14z"/>
<path d="M804 2031 c-34 -15 -74 -70 -74 -102 0 -44 25 -84 61 -100 42 -17 74
-14 115 12 61 37 68 125 14 174 -22 20 -86 28 -116 16z m66 -181 c0 -5 -4 -10
-10 -10 -5 0 -10 5 -10 10 0 6 5 10 10 10 6 0 10 -4 10 -10z"/>
<path d="M485 1759 c-6 -34 2 -455 19 -1009 5 -151 20 -203 77 -260 33 -32 88
-60 121 -60 17 0 14 7 -20 48 -81 98 -94 145 -111 417 -57 887 -58 905 -71
905 -5 0 -11 -18 -15 -41z"/>
<path d="M1784 1603 c-34 -6 -58 -42 -82 -118 -88 -285 -202 -672 -202 -687 0
-10 9 -27 21 -39 18 -18 30 -21 90 -17 52 3 74 9 89 23 10 11 39 87 65 170 25
83 61 200 80 260 56 184 105 354 105 368 0 29 -35 47 -91 46 -30 -1 -64 -4
-75 -6z"/>
<path d="M2018 1469 c-15 -8 -18 -25 -18 -108 0 -113 3 -118 90 -146 169 -55
181 -78 64 -121 -43 -15 -90 -39 -105 -52 -27 -22 -29 -29 -29 -96 0 -58 4
-76 18 -89 10 -10 24 -17 32 -17 7 0 85 32 174 71 348 153 336 144 336 243 0
114 15 101 -239 208 -302 128 -293 125 -323 107z"/>
<path d="M1300 1434 c-41 -19 -142 -65 -225 -101 -188 -83 -205 -97 -205 -174
0 -91 9 -117 44 -134 58 -27 451 -192 474 -199 16 -6 29 -2 43 10 16 14 19 31
19 109 0 58 -5 97 -12 106 -7 9 -66 35 -131 58 -64 24 -119 47 -122 51 -3 4
41 25 98 45 139 52 147 60 147 152 0 81 -11 113 -38 113 -9 -1 -51 -16 -92
-36z"/>
</g>
</svg>
